<?xml version="1.0" encoding="UTF-8" standalone="no"?>
<!-- Created with Inkscape (http://www.inkscape.org/) -->

<svg
   width="123.40625mm"
   height="123.40625mm"
   viewBox="0 0 123.40625 123.40625"
   version="1.1"
   id="svg1"
   xmlns:xlink="http://www.w3.org/1999/xlink"
   xmlns="http://www.w3.org/2000/svg"
   xmlns:svg="http://www.w3.org/2000/svg">
  <defs
     id="defs1">
    <linearGradient
       id="linearGradient841">
      <stop
         style="stop-color:#ffd3d3;stop-opacity:1;"
         offset="0"
         id="stop841" />
      <stop
         style="stop-color:#ffa9a9;stop-opacity:1;"
         offset="0.77592593"
         id="stop842" />
    </linearGradient>
    <linearGradient
       xlink:href="#linearGradient841"
       id="linearGradient842"
       x1="86.14035"
       y1="68.047508"
       x2="119.31284"
       y2="68.047508"
       gradientUnits="userSpaceOnUse" />
  </defs>
  <g
     id="layer2"
     transform="translate(-40.671876,-57.603753)">
    <circle
       style="fill:none;fill-opacity:1;stroke:#ffd3d3;stroke-width:2;stroke-linecap:round;stroke-linejoin:round;stroke-miterlimit:0;stroke-dasharray:none;stroke-dashoffset:0;stroke-opacity:1;paint-order:normal"
       id="path374"
       cx="102.375"
       cy="119.30688"
       r="60.703125" />
    <circle
       style="fill:none;fill-opacity:1;stroke:#ffa9a9;stroke-width:2;stroke-linecap:round;stroke-linejoin:round;stroke-miterlimit:0;stroke-dasharray:none;stroke-dashoffset:0;stroke-opacity:1;paint-order:normal"
       id="circle374"
       cx="102.375"
       cy="119.30688"
       r="46.005035" />
    <path
       style="fill:none;fill-opacity:1;stroke:url(#linearGradient842);stroke-width:1;stroke-linecap:round;stroke-linejoin:round;stroke-miterlimit:0;stroke-dasharray:none;stroke-dashoffset:0;stroke-opacity:1;paint-order:normal"
       d="m 86.640354,60.800707 9.4661,2.624397 2.041527,7.231979 20.664869,-5.743853 -1.82643,10.381078"
       id="path701" />
    <use
       x="0"
       y="0"
       xlink:href="#path701"
       id="use806" />
    <use
       x="0"
       y="0"
       xlink:href="#path701"
       transform="rotate(10,102.375,119.30687)"
       id="use807" />
    <use
       x="0"
       y="0"
       xlink:href="#path701"
       transform="rotate(20,102.375,119.30687)"
       id="use808" />
    <use
       x="0"
       y="0"
       xlink:href="#path701"
       transform="rotate(30,102.375,119.30687)"
       id="use809" />
    <use
       x="0"
       y="0"
       xlink:href="#path701"
       transform="rotate(40,102.375,119.30687)"
       id="use810" />
    <use
       x="0"
       y="0"
       xlink:href="#path701"
       transform="rotate(50,102.375,119.30687)"
       id="use811" />
    <use
       x="0"
       y="0"
       xlink:href="#path701"
       transform="rotate(60,102.375,119.30687)"
       id="use812" />
    <use
       x="0"
       y="0"
       xlink:href="#path701"
       transform="rotate(70,102.375,119.30687)"
       id="use813" />
    <use
       x="0"
       y="0"
       xlink:href="#path701"
       transform="rotate(80,102.375,119.30687)"
       id="use814" />
    <use
       x="0"
       y="0"
       xlink:href="#path701"
       transform="rotate(90,102.375,119.30687)"
       id="use815" />
    <use
       x="0"
       y="0"
       xlink:href="#path701"
       transform="rotate(100,102.375,119.30687)"
       id="use816" />
    <use
       x="0"
       y="0"
       xlink:href="#path701"
       transform="rotate(110,102.375,119.30687)"
       id="use817" />
    <use
       x="0"
       y="0"
       xlink:href="#path701"
       transform="rotate(120,102.375,119.30687)"
       id="use818" />
    <use
       x="0"
       y="0"
       xlink:href="#path701"
       transform="rotate(130,102.375,119.30687)"
       id="use819" />
    <use
       x="0"
       y="0"
       xlink:href="#path701"
       transform="rotate(140,102.375,119.30687)"
       id="use820" />
    <use
       x="0"
       y="0"
       xlink:href="#path701"
       transform="rotate(150,102.375,119.30687)"
       id="use821" />
    <use
       x="0"
       y="0"
       xlink:href="#path701"
       transform="rotate(160,102.375,119.30687)"
       id="use822" />
    <use
       x="0"
       y="0"
       xlink:href="#path701"
       transform="rotate(170,102.375,119.30687)"
       id="use823" />
    <use
       x="0"
       y="0"
       xlink:href="#path701"
       transform="rotate(180,102.375,119.30687)"
       id="use824" />
    <use
       x="0"
       y="0"
       xlink:href="#path701"
       transform="rotate(-170,102.375,119.30687)"
       id="use825" />
    <use
       x="0"
       y="0"
       xlink:href="#path701"
       transform="rotate(-160,102.375,119.30687)"
       id="use826" />
    <use
       x="0"
       y="0"
       xlink:href="#path701"
       transform="rotate(-150,102.375,119.30687)"
       id="use827" />
    <use
       x="0"
       y="0"
       xlink:href="#path701"
       transform="rotate(-140,102.375,119.30687)"
       id="use828" />
    <use
       x="0"
       y="0"
       xlink:href="#path701"
       transform="rotate(-130,102.375,119.30687)"
       id="use829" />
    <use
       x="0"
       y="0"
       xlink:href="#path701"
       transform="rotate(-120,102.375,119.30687)"
       id="use830" />
    <use
       x="0"
       y="0"
       xlink:href="#path701"
       transform="rotate(-110,102.375,119.30687)"
       id="use831" />
    <use
       x="0"
       y="0"
       xlink:href="#path701"
       transform="rotate(-100,102.375,119.30687)"
       id="use832" />
    <use
       x="0"
       y="0"
       xlink:href="#path701"
       transform="rotate(-90,102.375,119.30687)"
       id="use833" />
    <use
       x="0"
       y="0"
       xlink:href="#path701"
       transform="rotate(-80,102.375,119.30687)"
       id="use834" />
    <use
       x="0"
       y="0"
       xlink:href="#path701"
       transform="rotate(-70,102.375,119.30687)"
       id="use835" />
    <use
       x="0"
       y="0"
       xlink:href="#path701"
       transform="rotate(-60,102.375,119.30687)"
       id="use836" />
    <use
       x="0"
       y="0"
       xlink:href="#path701"
       transform="rotate(-50,102.375,119.30687)"
       id="use837" />
    <use
       x="0"
       y="0"
       xlink:href="#path701"
       transform="rotate(-40,102.375,119.30687)"
       id="use838" />
    <use
       x="0"
       y="0"
       xlink:href="#path701"
       transform="rotate(-30,102.375,119.30687)"
       id="use839" />
    <use
       x="0"
       y="0"
       xlink:href="#path701"
       transform="rotate(-20,102.375,119.30687)"
       id="use840" />
    <use
       x="0"
       y="0"
       xlink:href="#path701"
       transform="rotate(-10,102.375,119.30687)"
       id="use841" />
  </g>
</svg>
